<svg width="32" height="32" viewBox="0 0 32 32" fill="none" xmlns="http://www.w3.org/2000/svg">
<path d="M22.3553 12.7411C22.3654 12.8832 22.3654 13.0254 22.3654 13.1675C22.3654 17.5025 19.066 22.4974 13.0355 22.4974C11.1776 22.4974 9.45176 21.9593 7.99998 21.0254C8.26395 21.0558 8.51773 21.066 8.79186 21.066C10.3248 21.066 11.736 20.5482 12.8629 19.665C11.4213 19.6345 10.2132 18.6903 9.79692 17.3908C9.99998 17.4213 10.203 17.4416 10.4162 17.4416C10.7106 17.4416 11.0051 17.401 11.2792 17.3299C9.77664 17.0253 8.6497 15.7056 8.6497 14.1117V14.0711C9.08623 14.3147 9.59389 14.467 10.1319 14.4873C9.24867 13.8984 8.67001 12.8934 8.67001 11.7563C8.67001 11.1472 8.83242 10.5888 9.1167 10.1015C10.7309 12.0914 13.1573 13.3908 15.8781 13.533C15.8273 13.2893 15.7969 13.0355 15.7969 12.7817C15.7969 10.9746 17.2588 9.50255 19.0761 9.50255C20.0202 9.50255 20.873 9.89848 21.472 10.5381C22.2131 10.3959 22.9237 10.1218 23.5532 9.7462C23.3095 10.5076 22.7918 11.1472 22.1116 11.5533C22.7715 11.4823 23.4111 11.2995 23.9999 11.0457C23.5533 11.6954 22.9949 12.2741 22.3553 12.7411Z" fill="#999999"/>
</svg>
