<svg width="32" height="32" viewBox="0 0 32 32" fill="none" xmlns="http://www.w3.org/2000/svg">
<path d="M16.375 8.20311C13.1687 8.20311 9.99998 10.3406 9.99998 13.8C9.99998 16 11.2375 17.25 11.9875 17.25C12.2969 17.25 12.475 16.3875 12.475 16.1437C12.475 15.8531 11.7344 15.2343 11.7344 14.025C11.7344 11.5125 13.6468 9.73123 16.1218 9.73123C18.25 9.73123 19.825 10.9406 19.825 13.1625C19.825 14.8218 19.1593 17.9343 17.0031 17.9343C16.225 17.9343 15.5593 17.3718 15.5593 16.5656C15.5593 15.3843 16.3843 14.2406 16.3843 13.0219C16.3843 10.9531 13.45 11.3281 13.45 13.8281C13.45 14.3531 13.5156 14.9343 13.75 15.4125C13.3187 17.2687 12.4375 20.0343 12.4375 21.9468C12.4375 22.5375 12.5219 23.1187 12.5781 23.7093C12.6844 23.8281 12.6312 23.8156 12.7937 23.7562C14.3687 21.6 14.3125 21.1781 15.025 18.3562C15.4093 19.0875 16.4031 19.4812 17.1906 19.4812C20.5093 19.4812 22 16.2468 22 13.3312C22 10.2281 19.3187 8.20311 16.375 8.20311Z" fill="#999999"/>
</svg>
