<svg width="32" height="32" viewBox="0 0 32 32" fill="none" xmlns="http://www.w3.org/2000/svg">
<path d="M12.1337 22H9.23123V12.6531H12.1337V22ZM10.6809 11.3781C9.75279 11.3781 8.99998 10.6093 8.99998 9.68122C8.99998 9.23541 9.17708 8.80786 9.49232 8.49262C9.80755 8.17739 10.2351 8.00029 10.6809 8.00029C11.1267 8.00029 11.5543 8.17739 11.8695 8.49262C12.1848 8.80786 12.3619 9.23541 12.3619 9.68122C12.3619 10.6093 11.6087 11.3781 10.6809 11.3781ZM22.9968 22H20.1006V17.45C20.1006 16.3656 20.0787 14.975 18.5915 14.975C17.0825 14.975 16.8512 16.1531 16.8512 17.3718V22H13.9518V12.6531H16.7356V13.9281H16.7762C17.1637 13.1937 18.1103 12.4187 19.5225 12.4187C22.46 12.4187 23 14.3531 23 16.8656V22H22.9968Z" fill="#999999"/>
</svg>
