<svg width="14" height="14" viewBox="0 0 14 14" fill="none" xmlns="http://www.w3.org/2000/svg">
<path d="M12.5 0H1.5C0.671875 0 0 0.671875 0 1.5V12.5C0 13.3281 0.671875 14 1.5 14H12.5C13.3281 14 14 13.3281 14 12.5V1.5C14 0.671875 13.3281 0 12.5 0ZM10.9719 4.9625C10.9781 5.05 10.9781 5.14062 10.9781 5.22813C10.9781 7.9375 8.91563 11.0594 5.14687 11.0594C3.98438 11.0594 2.90625 10.7219 2 10.1406C2.16562 10.1594 2.325 10.1656 2.49375 10.1656C3.45312 10.1656 4.33437 9.84062 5.0375 9.29063C4.1375 9.27187 3.38125 8.68125 3.12188 7.86875C3.4375 7.91562 3.72187 7.91562 4.04688 7.83125C3.10938 7.64062 2.40625 6.81562 2.40625 5.81875V5.79375C2.67813 5.94688 2.99688 6.04063 3.33125 6.05312C3.05013 5.86614 2.81968 5.61246 2.66046 5.31474C2.50124 5.01701 2.4182 4.6845 2.41875 4.34687C2.41875 3.96563 2.51875 3.61563 2.69687 3.3125C3.70625 4.55625 5.22187 5.36875 6.92188 5.45625C6.63125 4.06563 7.67188 2.9375 8.92188 2.9375C9.5125 2.9375 10.0437 3.18438 10.4187 3.58438C10.8812 3.49687 11.325 3.325 11.7188 3.09062C11.5656 3.56562 11.2438 3.96562 10.8187 4.21875C11.2312 4.175 11.6312 4.05938 12 3.9C11.7219 4.30938 11.3719 4.67188 10.9719 4.9625Z" fill="#777777"/>
</svg>
