<svg width="14" height="14" viewBox="0 0 14 14" fill="none" xmlns="http://www.w3.org/2000/svg">
<path d="M14 1.5V12.5C14 13.3281 13.3281 14 12.5 14H4.825C5.13125 13.4875 5.525 12.75 5.68125 12.1469C5.775 11.7875 6.15937 10.3219 6.15937 10.3219C6.40937 10.8 7.14062 11.2031 7.91875 11.2031C10.2344 11.2031 11.9 9.075 11.9 6.43125C11.9 3.89688 9.83125 2 7.16875 2C3.85625 2 2.1 4.22188 2.1 6.64375C2.1 7.76875 2.7 9.16875 3.65625 9.61562C3.80313 9.68437 3.87812 9.65312 3.9125 9.5125C3.9375 9.40625 4.06875 8.88438 4.125 8.64375C4.14375 8.56563 4.13438 8.5 4.07188 8.425C3.75625 8.04063 3.5 7.33437 3.5 6.675C3.5 4.98125 4.78125 3.34375 6.96563 3.34375C8.85 3.34375 10.1719 4.62812 10.1719 6.46563C10.1719 8.54063 9.125 9.97813 7.75937 9.97813C7.00625 9.97813 6.44375 9.35625 6.62188 8.59062C6.8375 7.67812 7.25625 6.69375 7.25625 6.03437C7.25625 4.37812 4.89687 4.60625 4.89687 6.81562C4.89687 7.49375 5.125 7.95625 5.125 7.95625C4.14375 12.1062 3.99687 12.1594 4.2 13.975L4.26875 14H1.5C0.671875 14 0 13.3281 0 12.5V1.5C0 0.671875 0.671875 0 1.5 0H12.5C13.3281 0 14 0.671875 14 1.5Z" fill="#777777"/>
</svg>
